<?xml version="1.0" encoding="UTF-8"?>
<svg width="21px" height="18px" viewBox="0 0 21 18" version="1.1" xmlns="http://www.w3.org/2000/svg" xmlns:xlink="http://www.w3.org/1999/xlink">
    <!-- Generator: Sketch 50.2 (55047) - http://www.bohemiancoding.com/sketch -->
    <title>Combined Shape</title>
    <desc>Created with Sketch.</desc>
    <defs></defs>
    <g id="Page-1" stroke="none" stroke-width="1" fill="none" fill-rule="evenodd">
        <g id="Little-guide" transform="translate(-704.000000, -1371.000000)" fill="#AB1725" fill-rule="nonzero">
            <path d="M721.501777,1378.5 L717.200016,1372.63563 C716.868679,1372.18393 716.958271,1371.54318 717.400125,1371.20447 C717.841979,1370.86575 718.468773,1370.95734 718.800109,1371.40903 L724.421025,1379.07174 C724.678265,1379.42242 724.67935,1379.89916 724.423708,1380.25101 L718.802849,1387.98721 C718.47354,1388.44045 717.847162,1388.53497 717.403796,1388.19833 C716.960429,1387.86169 716.867967,1387.22136 717.197276,1386.76812 L721.751477,1380.5 L705,1380.5 C704.447715,1380.5 704,1380.05228 704,1379.5 C704,1378.94772 704.447715,1378.5 705,1378.5 L721.501777,1378.5 Z" id="Combined-Shape"></path>
        </g>
    </g>
</svg>