<?xml version="1.0" encoding="UTF-8"?>
<svg width="18px" height="20px" viewBox="0 0 18 20" version="1.1" xmlns="http://www.w3.org/2000/svg" xmlns:xlink="http://www.w3.org/1999/xlink">
    <!-- Generator: Sketch 50.2 (55047) - http://www.bohemiancoding.com/sketch -->
    <title>refresh</title>
    <desc>Created with Sketch.</desc>
    <defs></defs>
    <g id="Page-1" stroke="none" stroke-width="1" fill="none" fill-rule="evenodd">
        <g id="Little-guide" transform="translate(-707.000000, -1415.000000)" fill="#AB1725" fill-rule="nonzero" stroke="#AB1725">
            <g id="refresh" transform="translate(708.000000, 1416.000000)">
                <path d="M15.3129755,9.7243968 C15.3129755,10.7068318 15.119668,11.6597502 14.7384655,12.5565627 C14.3700685,13.4229204 13.842782,14.2011787 13.1710336,14.8694956 C12.4993606,15.5378877 11.717191,16.0625811 10.8464395,16.4290333 C9.94502287,16.8083204 8.98736782,17.0006755 7.99995286,17.0006755 C7.0125379,17.0006755 6.0549017,16.8083204 5.15348502,16.4290333 C4.28271465,16.0625811 3.50063944,15.5378689 2.82887214,14.8694956 C2.15719913,14.2011786 1.6298184,13.4229204 1.26153452,12.5565627 C0.880332036,11.6597689 0.687005622,10.7068505 0.687005622,9.7243968 C0.687005622,8.74194306 0.880332036,7.78909971 1.26153452,6.89230597 C1.6298184,6.02585446 2.15719913,5.24768999 2.82887214,4.57931672 C3.50063946,3.91099972 4.28271467,3.38628757 5.15348502,3.01983534 C6.0549017,2.64054819 7.0125379,2.44819313 7.99995286,2.44819313 C9.51171221,2.44819313 10.9787562,2.91379707 12.2040432,3.77081001 L9.76602492,4.98719411 C9.57894094,5.01854963 9.45279125,5.19487977 9.48438053,5.381005 C9.51261286,5.5478966 9.65801786,5.66603799 9.82267818,5.66603799 C9.84159403,5.66603799 9.86083049,5.66444301 9.88016124,5.6612155 L13.1132676,4.31149075 C13.3002573,4.28015402 13.426407,4.1038051 13.3948931,3.91769863 L12.2715315,0.285041664 C12.2400553,0.0988976775 12.062797,-0.0265243521 11.8757319,0.00479362376 C11.6886856,0.0361491357 11.5626114,0.212498042 11.5940875,0.398604511 L12.5757595,3.19490827 C11.239976,2.26777232 9.64402886,1.76460184 7.99995286,1.76460184 C6.9201463,1.76460184 5.87241937,1.97510218 4.88585308,2.39030462 C3.93319576,2.79124603 3.07768254,3.3651212 2.34311384,4.09601786 C1.60850743,4.82683946 1.03173426,5.67812924 0.628787031,6.62598122 C0.211563329,7.60751551 0,8.64999694 0,9.72437804 C0,10.7987591 0.211563329,11.8412218 0.628843611,12.8228312 C1.03173426,13.7707019 1.60850743,14.6219166 2.34311384,15.3527945 C3.0777014,16.0837099 3.93321461,16.6575851 4.88594737,17.0585078 C5.87243824,17.4737102 6.92016515,17.6842105 7.99997171,17.6842105 C9.07977827,17.6842105 10.1275052,17.4737102 11.1140715,17.0585078 C12.0667477,16.6575851 12.922242,16.0837099 13.6568296,15.3527945 C14.3914171,14.6218979 14.9681903,13.7706831 15.3711564,12.8228312 C15.7884367,11.8412218 16,10.7987591 16,9.72437804 C16,9.535607 15.8461649,9.38263867 15.6564595,9.38263867 C15.4668106,9.38263867 15.3129755,9.53568205 15.3129755,9.7243968 Z" id="Shape"></path>
            </g>
        </g>
    </g>
</svg>