<?xml version="1.0" encoding="UTF-8"?>
<svg width="120px" height="13px" viewBox="0 0 120 13" version="1.1" xmlns="http://www.w3.org/2000/svg" xmlns:xlink="http://www.w3.org/1999/xlink">
    <!-- Generator: Sketch 50.2 (55047) - http://www.bohemiancoding.com/sketch -->
    <title>RV-logo</title>
    <desc>Created with Sketch.</desc>
    <defs>
        <polygon id="path-1" points="0 18 132 18 132 0 0 0"></polygon>
    </defs>
    <g id="Page-1" stroke="none" stroke-width="1" fill="none" fill-rule="evenodd">
        <g id="Little-guide" transform="translate(-660.000000, -1324.000000)">
            <g id="RV-logo" transform="translate(654.000000, 1322.000000)">
                <path d="M10.0459726,8.80419785 C10.9831777,8.80419785 11.2559591,8.35060765 11.2559591,7.97930266 C11.2559591,7.6908401 11.0550073,7.18635568 10.2715089,7.18635568 L9.20347136,7.18635568 L9.20347136,8.80419785 L10.0459726,8.80419785 Z M14.4,13 L11.944326,13 L10.1289186,9.92758584 L9.20347136,9.92758584 L9.20347136,11.8145731 L10.2122923,11.8145731 L10.2122923,13 L6,13 L6,11.8145731 L7.10395236,11.8145731 L7.10395236,7.18635568 L6,7.18635568 L6,6 L11.0186649,6 C12.585234,6 13.4388517,6.89696439 13.4388517,7.95868492 C13.4388517,8.76314812 12.9884203,9.32948575 12.0512152,9.70079074 L13.3559056,11.8145731 L14.4,11.8145731 L14.4,13 Z" id="Fill-1" fill="#AB1725"></path>
                <polygon id="Fill-3" fill="#AB1725" points="18 11.8145731 18.965215 11.8145731 18.965215 7.18635568 18 7.18635568 18 6 25.2 6 25.2 8.21575651 23.6444002 8.21575651 23.6444002 7.18635568 21.0992485 7.18635568 21.0992485 8.79323887 23.1496243 8.79323887 23.1496243 9.97996604 21.0992485 9.97996604 21.0992485 11.8145731 23.6444002 11.8145731 23.6444002 10.7730988 25.2 10.7730988 25.2 13 18 13"></polygon>
                <path d="M31.5985171,11.8145731 C33.1541188,11.8145731 33.879914,10.9174229 33.879914,9.52563286 C33.879914,8.02035239 33.0507303,7.18635568 31.5291762,7.18635568 L30.8264254,7.18635568 L30.8264254,11.8145731 L31.5985171,11.8145731 Z M27.6,11.8145731 L28.7866835,11.8145731 L28.7866835,7.18635568 L27.6,7.18635568 L27.6,6 L31.6902795,6 C33.10803,6 34.0873137,6.23701109 34.8820346,6.94878735 C35.6657522,7.64960463 36,8.55641352 36,9.51523112 C36,11.3295919 34.7441833,13 32.2555943,13 L27.6,13 L27.6,11.8145731 Z" id="Fill-5" fill="#AB1725"></path>
                <polygon id="Fill-7" fill="#000000" points="45.363252 7.17754597 44.4 7.17754597 44.4 6 48.4435772 6 48.4435772 7.17754597 47.5052575 7.17754597 48.8648238 10.6561562 48.8886721 10.6561562 50.2603794 7.17754597 49.357832 7.17754597 49.357832 6 52.8 6 52.8 7.17754597 51.8369648 7.17754597 49.4660163 13 47.8178862 13"></polygon>
                <polygon id="Fill-9" fill="#000000" points="55.2 11.8145731 56.1644041 11.8145731 56.1644041 7.18635568 55.2 7.18635568 55.2 6 62.4 6 62.4 8.21575651 60.8445236 8.21575651 60.8445236 7.18635568 58.299001 7.18635568 58.299001 8.79323887 60.3492832 8.79323887 60.3492832 9.97996604 58.299001 9.97996604 58.299001 11.8145731 60.8445236 11.8145731 60.8445236 10.7730988 62.4 10.7730988 62.4 13 55.2 13"></polygon>
                <polygon id="Fill-11" fill="#000000" points="64.8 11.8145731 65.9613849 11.8145731 65.9613849 7.18635568 64.8 7.18635568 64.8 6 68.4265389 6 71.6049934 10.3711458 71.6293758 10.3711458 71.6293758 7.18635568 70.5070948 7.18635568 70.5070948 6 74.4 6 74.4 7.18635568 73.1751288 7.18635568 73.1751288 13 71.2339667 13 67.5317503 7.8554105 67.5064478 7.8554105 67.5064478 11.8145731 68.5914652 11.8145731 68.5914652 13 64.8 13"></polygon>
                <polygon id="Fill-13" fill="#000000" points="84 8.81430277 82.6226946 8.81430277 82.6226946 7.18620141 81.4327162 7.18620141 81.4327162 11.8145416 82.6226946 11.8145416 82.6226946 13 78.1768849 13 78.1768849 11.8145416 79.366653 11.8145416 79.366653 7.18620141 78.1768849 7.18620141 78.1768849 8.81430277 76.8 8.81430277 76.8 6 84 6"></polygon>
                <path d="M87.6,6 L91.1276923,6 L91.1276923,7.17241922 L90.4681733,7.17241922 L90.4681733,10.6867394 C90.4681733,11.3698856 90.6924379,11.827948 91.4509149,11.827948 C92.0881079,11.827948 92.5014387,11.533099 92.5014387,10.7484264 L92.5014387,7.17241922 L91.8751069,7.17241922 L91.8751069,6 L94.8,6 L94.8,7.17241922 L93.8520546,7.17241922 L93.8520546,11.0432753 C93.8520546,12.6531945 92.3109646,13 91.2389195,13 C89.7543481,13 88.4928346,12.4811687 88.4928346,10.7893674 L88.4928346,7.17241922 L87.6,7.17241922 L87.6,6 Z" id="Fill-15" fill="#000000"></path>
                <path d="M102.445759,8.80419785 C103.382964,8.80419785 103.655318,8.35060765 103.655318,7.97930266 C103.655318,7.6908401 103.453938,7.18635568 102.671081,7.18635568 L101.603471,7.18635568 L101.603471,8.80419785 L102.445759,8.80419785 Z M106.8,13 L104.344112,13 L102.528277,9.92758584 L101.603471,9.92758584 L101.603471,11.8145731 L102.61101,11.8145731 L102.61101,13 L98.4,13 L98.4,11.8145731 L99.5030972,11.8145731 L99.5030972,7.18635568 L98.4,7.18635568 L98.4,6 L103.419092,6 C104.984165,6 105.838852,6.89696439 105.838852,7.95868492 C105.838852,8.76314812 105.387993,9.32948575 104.451001,9.70079074 L105.756119,11.8145731 L106.8,11.8145731 L106.8,13 Z" id="Fill-17" fill="#000000"></path>
                <polygon id="Fill-19" fill="#000000" points="109.2 11.8145731 110.165056 11.8145731 110.165056 7.18635568 109.2 7.18635568 109.2 6 116.4 6 116.4 8.21575651 114.843872 8.21575651 114.843872 7.18635568 112.300088 7.18635568 112.300088 8.79323887 114.348849 8.79323887 114.348849 9.97996604 112.300088 9.97996604 112.300088 11.8145731 114.843872 11.8145731 114.843872 10.7730988 116.4 10.7730988 116.4 13 109.2 13"></polygon>
                <path d="M120.092013,10.5823461 L121.601356,10.5823461 C121.574864,11.3178224 122.191989,11.8221128 122.966648,11.8221128 C123.505243,11.8221128 123.950879,11.4992871 123.950879,11.0866364 C123.950879,9.83743357 120,10.0087362 120,7.86400518 C120,6.53423202 121.299062,6 122.402271,6 C123.098163,6 123.662067,6.21158782 124.029883,6.63548931 L124.056375,6.63548931 L124.056375,6.07095269 L125.552472,6.07095269 L125.552472,8.14581983 L124.056375,8.14581983 C123.938343,7.52139987 123.452259,7.13832793 122.770559,7.13832793 C122.25822,7.13832793 121.889931,7.37023979 121.889931,7.69252106 C121.889931,8.79981854 126,8.54794556 126,10.9648736 C126,12.5971484 124.358906,13 123.412994,13 C122.625089,13 122.022156,12.7778872 121.627612,12.3363837 L121.601356,12.3363837 L121.601356,12.9094491 L120.092013,12.9094491 L120.092013,10.5823461 Z" id="Fill-21" fill="#000000"></path>
                <mask id="mask-2" fill="white">
                    <use xlink:href="#path-1"></use>
                </mask>
                <g id="Clip-24"></g>
                <polygon id="Fill-23" fill="#000000" mask="url(#mask-2)" points="39.6 15 40.2 15 40.2 2 39.6 2"></polygon>
            </g>
        </g>
    </g>
</svg>